<?xml version="1.0" encoding="iso-8859-1"?>
<!-- Generator: Adobe Illustrator 16.0.0, SVG Export Plug-In . SVG Version: 6.00 Build 0)  -->
<!DOCTYPE svg PUBLIC "-//W3C//DTD SVG 1.1//EN" "http://www.w3.org/Graphics/SVG/1.1/DTD/svg11.dtd">
<svg version="1.1" id="Capa_1" xmlns="http://www.w3.org/2000/svg" xmlns:xlink="http://www.w3.org/1999/xlink" x="0px" y="0px"
	 width="24.343px" height="24.344px" viewBox="0 0 24.343 24.344" style="enable-background:new 0 0 24.343 24.344;"
	 xml:space="preserve">
<g>
	<g>
		<path d="M24.343,9.606c-0.656-0.657-1.564-1.063-2.566-1.063c-1.178,0-2.213,0.57-2.877,1.439c-0.998-4.468-4.98-7.81-9.75-7.81
			c-2.762,0-5.263,1.119-7.072,2.929l7.071,7.07l-7.071,7.071c1.81,1.81,4.311,2.93,7.072,2.93c4.77,0,8.752-3.343,9.75-7.812
			c0.664,0.871,1.699,1.44,2.877,1.44c1.004,0,1.91-0.405,2.566-1.063l-2.566-2.564L24.343,9.606z M9.774,7.421
			c-0.863,0-1.563-0.699-1.563-1.563c0-0.862,0.699-1.562,1.563-1.562c0.864,0,1.563,0.699,1.563,1.562
			C11.336,6.722,10.637,7.421,9.774,7.421z"/>
		<circle cx="4.313" cy="14.714" r="1"/>
		<circle cx="1.536" cy="13.324" r="0.847"/>
		<circle cx="3.313" cy="9.797" r="1"/>
		<circle cx="0.688" cy="9.11" r="0.688"/>
		<circle cx="5.773" cy="12.172" r="0.688"/>
	</g>
</g>
<g>
</g>
<g>
</g>
<g>
</g>
<g>
</g>
<g>
</g>
<g>
</g>
<g>
</g>
<g>
</g>
<g>
</g>
<g>
</g>
<g>
</g>
<g>
</g>
<g>
</g>
<g>
</g>
<g>
</g>
</svg>
